<svg width="15" height="15" viewBox="0 0 15 15" fill="none" xmlns="http://www.w3.org/2000/svg">
<g id="checkmark-circle-2" clip-path="url(#clip0_11_418)">
<g id="Layer 2">
<g id="checkmark-circle-2_2">
<path id="Vector" d="M7.5 1.25C6.26387 1.25 5.0555 1.61656 4.02769 2.30331C2.99988 2.99007 2.1988 3.96619 1.72576 5.10823C1.25271 6.25027 1.12894 7.50693 1.37009 8.71931C1.61125 9.9317 2.20651 11.0453 3.08059 11.9194C3.95466 12.7935 5.06831 13.3888 6.28069 13.6299C7.49307 13.8711 8.74974 13.7473 9.89178 13.2742C11.0338 12.8012 12.0099 12.0001 12.6967 10.9723C13.3834 9.94451 13.75 8.73613 13.75 7.5C13.75 6.67924 13.5883 5.86651 13.2743 5.10823C12.9602 4.34994 12.4998 3.66095 11.9194 3.08058C11.3391 2.50022 10.6501 2.03984 9.89178 1.72575C9.13349 1.41166 8.32076 1.25 7.5 1.25ZM10.1875 6.00625L7.33125 9.75625C7.27303 9.83188 7.19826 9.89318 7.11267 9.93543C7.02708 9.97768 6.93295 9.99977 6.8375 10C6.74257 10.0005 6.64877 9.97939 6.56322 9.93824C6.47766 9.89709 6.40261 9.83699 6.34375 9.7625L4.81875 7.81875C4.76828 7.75391 4.73106 7.67976 4.70924 7.60054C4.68742 7.52132 4.68142 7.43858 4.69157 7.35704C4.70173 7.27549 4.72785 7.19675 4.76844 7.1253C4.80902 7.05386 4.86329 6.9911 4.92813 6.94062C5.05908 6.83868 5.22516 6.79293 5.38984 6.81345C5.47138 6.8236 5.55013 6.84972 5.62157 6.89031C5.69302 6.9309 5.75578 6.98516 5.80625 7.05L6.825 8.35L9.1875 5.225C9.23757 5.15934 9.30008 5.10418 9.37146 5.06268C9.44284 5.02118 9.5217 4.99414 9.60353 4.98311C9.68537 4.97209 9.76857 4.97728 9.84839 4.99841C9.92821 5.01954 10.0031 5.05618 10.0688 5.10625C10.1344 5.15632 10.1896 5.21883 10.2311 5.29021C10.2726 5.36159 10.2996 5.44045 10.3106 5.52228C10.3217 5.60411 10.3165 5.68731 10.2953 5.76714C10.2742 5.84696 10.2376 5.92184 10.1875 5.9875V6.00625Z" fill="#E4BD71"/>
</g>
</g>
</g>
<defs>
<clipPath id="clip0_11_418">
<rect width="15" height="15" fill="white"/>
</clipPath>
</defs>
</svg>
