<svg width="25" height="24" fill="none" xmlns="http://www.w3.org/2000/svg"><path d="M22.133 6.647a6.093 6.093 0 0 0-1.334-1.94A6.219 6.219 0 0 0 16.43 2.93a6.26 6.26 0 0 0-3.93 1.385A6.26 6.26 0 0 0 8.57 2.93 6.219 6.219 0 0 0 4.2 4.706a6.057 6.057 0 0 0-1.825 4.33c0 .78.16 1.593.476 2.42.265.692.644 1.409 1.13 2.133.768 1.146 1.825 2.341 3.138 3.553a35.089 35.089 0 0 0 4.42 3.453l.556.356a.753.753 0 0 0 .808 0l.556-.356a35.535 35.535 0 0 0 4.42-3.453c1.312-1.211 2.37-2.407 3.138-3.553.485-.724.867-1.441 1.13-2.133.316-.827.476-1.64.476-2.42a5.968 5.968 0 0 0-.49-2.39ZM12.5 19.097S4.156 13.75 4.156 9.035c0-2.388 1.976-4.324 4.414-4.324 1.713 0 3.199.956 3.93 2.353a4.426 4.426 0 0 1 3.93-2.353c2.438 0 4.414 1.936 4.414 4.324 0 4.716-8.344 10.062-8.344 10.062Z" fill="#696C8D"/></svg>