<svg width="25" height="28" fill="none" xmlns="http://www.w3.org/2000/svg"><g clip-path="url(#a)" fill="#4D4848"><path d="M12.427.005c2.692 0 5.384-.004 8.075.002 1.482.002 2.613.827 3.361 2.486.33.727.472 1.527.472 2.372-.002 4.326 0 8.651-.002 12.977-.002 2.659-1.572 4.78-3.628 4.845-1.364.044-2.728.015-4.093.009-.444-.002-.766-.421-.766-.96 0-.55.326-.96.784-.962 1.303-.006 2.605 0 3.908-.004.885-.002 1.565-.485 2.017-1.476.206-.452.29-.95.29-1.474v-4.382c0-2.849.002-5.697 0-8.546-.002-1.447-.705-2.587-1.785-2.893a2.129 2.129 0 0 0-.573-.063c-5.377-.004-10.754-.004-16.131-.002-1.141 0-2.003.825-2.275 2.184-.052.26-.071.538-.072.809-.004 4.285-.004 8.57-.002 12.855 0 1.73.957 2.978 2.296 2.987 1.389.01 2.778 0 4.167.003.458.001.77.343.812.876.039.49-.226.946-.603 1.028-.078.017-.16.022-.24.022-1.383.002-2.766.007-4.15 0-1.85-.01-3.328-1.569-3.701-3.906a6.479 6.479 0 0 1-.068-1.004C.515 13.511.537 9.233.509 4.956.49 2.292 2.119-.018 4.333 0c2.698.022 5.396.005 8.094.005Z"/><path d="M11.64 12.144c-.167.246-.334.491-.5.738-.586.872-1.17 1.746-1.758 2.615-.276.407-.666.5-.985.25-.402-.316-.48-.998-.16-1.48.586-.881 1.178-1.757 1.768-2.634.603-.896 1.204-1.793 1.808-2.688.369-.546.86-.545 1.23.004 1.18 1.755 2.358 3.513 3.541 5.266.205.303.288.637.19 1.022-.18.703-.872.878-1.265.313-.48-.693-.946-1.403-1.418-2.105a19.597 19.597 0 0 0-.92-1.29v14.669c0 .585-.27.998-.68 1.048-.413.05-.785-.363-.808-.9-.004-.097-.002-.193-.002-.29V12.17l-.041-.025Z"/></g><defs><clipPath id="a"><path fill="#fff" transform="translate(.509)" d="M0 0h23.826v27.875H0z"/></clipPath></defs></svg>