<svg width="174" height="167" fill="none" xmlns="http://www.w3.org/2000/svg"><g filter="url(#a)"><ellipse cx="86.882" cy="83.5" rx="44.882" ry="41.5" fill="url(#b)" fill-opacity=".5"/><path d="M131.643 83.5c0 22.845-20.031 41.38-44.761 41.38-24.73 0-44.762-18.535-44.762-41.38 0-22.845 20.032-41.38 44.762-41.38s44.761 18.535 44.761 41.38Z" stroke="url(#c)" stroke-width=".24"/></g><g filter="url(#d)" shape-rendering="crispEdges"><ellipse cx="86.882" cy="84.12" rx="39.602" ry="37.164" fill="#fff" fill-opacity=".15" style="mix-blend-mode:overlay"/><path d="M124.386 84.12c0 19.243-16.663 35.067-37.504 35.067-20.84 0-37.505-15.824-37.505-35.067 0-19.244 16.664-35.068 37.505-35.068s37.504 15.824 37.504 35.068Z" stroke="url(#e)" stroke-width="4.194"/></g><defs><linearGradient id="b" x1="58.457" y1="54.45" x2="114.257" y2="115.542" gradientUnits="userSpaceOnUse"><stop stop-color="#FF53BC"/><stop offset="1" stop-color="#0AFCD4"/></linearGradient><linearGradient id="c" x1="56.117" y1="53.822" x2="115.757" y2="115.013" gradientUnits="userSpaceOnUse"><stop stop-color="#FE53BB"/><stop offset="1" stop-color="#09FBD3"/></linearGradient><linearGradient id="e" x1="59.736" y1="57.542" x2="113.16" y2="111.549" gradientUnits="userSpaceOnUse"><stop stop-color="#FE53BB"/><stop offset="1" stop-color="#09FBD3"/></linearGradient><filter id="a" x=".058" y=".058" width="173.647" height="166.883" filterUnits="userSpaceOnUse" color-interpolation-filters="sRGB"><feFlood flood-opacity="0" result="BackgroundImageFix"/><feBlend in="SourceGraphic" in2="BackgroundImageFix" result="shape"/><feGaussianBlur stdDeviation="20.971" result="effect1_foregroundBlur_1_305"/></filter><filter id="d" x="43.086" y="44.858" width="87.592" height="82.717" filterUnits="userSpaceOnUse" color-interpolation-filters="sRGB"><feFlood flood-opacity="0" result="BackgroundImageFix"/><feColorMatrix in="SourceAlpha" values="0 0 0 0 0 0 0 0 0 0 0 0 0 0 0 0 0 0 127 0" result="hardAlpha"/><feOffset dy="2.097"/><feGaussianBlur stdDeviation="2.097"/><feComposite in2="hardAlpha" operator="out"/><feColorMatrix values="0 0 0 0 0.0705882 0 0 0 0 0.964706 0 0 0 0 0.827451 0 0 0 0.25 0"/><feBlend in2="BackgroundImageFix" result="effect1_dropShadow_1_305"/><feBlend in="SourceGraphic" in2="effect1_dropShadow_1_305" result="shape"/></filter></defs></svg>