<svg width="9" height="38" fill="none" xmlns="http://www.w3.org/2000/svg"><mask id="b" fill="#fff"><path fill-rule="evenodd" clip-rule="evenodd" d="M4.125.503a15.997 15.997 0 0 0-3.302 9.735v17.524c0 3.578 1.195 6.985 3.302 9.735a20 20 0 0 1 .605-3.124l2.783-10.02a20 20 0 0 0 0-10.706L4.73 3.627A20 20 0 0 1 4.125.503Z"/></mask><path fill-rule="evenodd" clip-rule="evenodd" d="M4.125.503a15.997 15.997 0 0 0-3.302 9.735v17.524c0 3.578 1.195 6.985 3.302 9.735a20 20 0 0 1 .605-3.124l2.783-10.02a20 20 0 0 0 0-10.706L4.73 3.627A20 20 0 0 1 4.125.503Z" fill="url(#a)"/><path d="m4.125.503.993-.111-.276-2.468L3.33-.105l.794.608Zm0 36.994-.794.608 1.51 1.971.277-2.468-.993-.111Zm.605-3.124.963.268-.963-.268Zm2.783-10.02-.963-.268.963.268Zm0-10.706-.963.268.963-.268ZM4.73 3.627l-.964.267.964-.267Zm-2.907 6.61c0-3.353 1.12-6.547 3.095-9.125L3.331-.105A16.997 16.997 0 0 0-.177 10.238h2Zm0 17.525V10.238h-2v17.524h2Zm3.095 9.126a14.997 14.997 0 0 1-3.095-9.126h-2c0 3.802 1.27 7.422 3.508 10.343l1.587-1.217Zm.2.72c.113-1.002.305-1.994.575-2.967l-1.927-.535a21 21 0 0 0-.635 3.28l1.987.222Zm.575-2.967 2.784-10.02-1.927-.536-2.784 10.02 1.927.536Zm2.784-10.02a21 21 0 0 0 0-11.241l-1.927.535a19 19 0 0 1 0 10.17l1.927.535Zm0-11.241L5.693 3.36l-1.927.534 2.784 10.02 1.927-.534ZM5.693 3.36A19 19 0 0 1 5.118.391L3.131.615a21 21 0 0 0 .635 3.28l1.927-.536Z" fill="#fff" fill-opacity=".4" style="mix-blend-mode:overlay" mask="url(#b)"/><defs><linearGradient id="a" x1="28.5" y1="21" x2="8.5" y2="43" gradientUnits="userSpaceOnUse"><stop stop-color="#C441F4"/><stop offset="1" stop-color="#00DAEA"/></linearGradient></defs></svg>