<svg width="74" height="80" fill="none" xmlns="http://www.w3.org/2000/svg"><g filter="url(#a)"><path d="M28 8.619a16 16 0 0 1 16 0l15.177 8.762a16 16 0 0 1 8 13.857v17.524a16 16 0 0 1-8 13.857L44 71.38a16 16 0 0 1-16 0L12.823 62.62a16 16 0 0 1-8-13.857V31.238a16 16 0 0 1 8-13.857L28 8.62Z" fill="url(#b)"/><path d="M44.5 7.753a17 17 0 0 0-17 0l-15.177 8.762a17 17 0 0 0-8.5 14.723v17.524a17 17 0 0 0 8.5 14.723L27.5 72.247a17 17 0 0 0 17 0l15.177-8.762a17 17 0 0 0 8.5-14.723V31.238a17 17 0 0 0-8.5-14.723L44.5 7.753Z" stroke="url(#c)" stroke-width="2"/></g><path d="M28.25 9.052a15.5 15.5 0 0 1 15.5 0l15.177 8.762a15.5 15.5 0 0 1 7.75 13.424v17.524a15.5 15.5 0 0 1-7.75 13.424L43.75 70.948a15.5 15.5 0 0 1-15.5 0l-15.177-8.762a15.5 15.5 0 0 1-7.75-13.424V31.238a15.5 15.5 0 0 1 7.75-13.424L28.25 9.052Z" fill="url(#d)"/><path d="M28.25 9.052a15.5 15.5 0 0 1 15.5 0l15.177 8.762a15.5 15.5 0 0 1 7.75 13.424v17.524a15.5 15.5 0 0 1-7.75 13.424L43.75 70.948a15.5 15.5 0 0 1-15.5 0l-15.177-8.762a15.5 15.5 0 0 1-7.75-13.424V31.238a15.5 15.5 0 0 1 7.75-13.424L28.25 9.052Z" stroke="#fff" style="mix-blend-mode:overlay"/><defs><linearGradient id="b" x1="32.5" y1="42" x2="12.5" y2="64" gradientUnits="userSpaceOnUse"><stop stop-color="#C441F4"/><stop offset="1" stop-color="#00DAEA"/></linearGradient><linearGradient id="c" x1="36" y1="4" x2="36" y2="76" gradientUnits="userSpaceOnUse"><stop stop-color="#C618FF"/><stop offset="1" stop-color="#00C3FB"/></linearGradient><linearGradient id="d" x1="32.5" y1="42" x2="12.5" y2="64" gradientUnits="userSpaceOnUse"><stop stop-color="#C441F4"/><stop offset="1" stop-color="#00DAEA"/></linearGradient><filter id="a" x="-1.177" y=".475" width="74.354" height="79.05" filterUnits="userSpaceOnUse" color-interpolation-filters="sRGB"><feFlood flood-opacity="0" result="BackgroundImageFix"/><feBlend in="SourceGraphic" in2="BackgroundImageFix" result="shape"/><feGaussianBlur stdDeviation="2" result="effect1_foregroundBlur_1_226"/></filter></defs></svg>