<svg width="58" height="43" fill="none" xmlns="http://www.w3.org/2000/svg"><path fill-rule="evenodd" clip-rule="evenodd" d="M16.857 3.092c1.74-.1 3.478-.092 5.218-.092h8.817c1.774 0 3.512-.008 5.251.092 1.581.09 3.121.282 4.654.711 3.227.902 6.045 2.786 8.082 5.457a15.236 15.236 0 0 1 0 18.48c-2.037 2.67-4.855 4.555-8.082 5.457-1.533.43-3.073.62-4.654.711-1.739.1-3.477.091-5.217.091L22.107 34c-1.772 0-3.51.008-5.25-.092-1.58-.09-3.12-.282-4.653-.71-3.227-.903-6.045-2.788-8.082-5.458a15.234 15.234 0 0 1 0-18.48c2.037-2.67 4.855-4.555 8.082-5.457 1.533-.429 3.073-.62 4.653-.71Z" fill="#B46AE1"/><g filter="url(#a)"><path fill-rule="evenodd" clip-rule="evenodd" d="M36.5 32C43.956 32 50 25.956 50 18.5S43.956 5 36.5 5 23 11.044 23 18.5 29.044 32 36.5 32Z" fill="#fff"/></g><defs><filter id="a" x="15" y="0" width="43" height="43" filterUnits="userSpaceOnUse" color-interpolation-filters="sRGB"><feFlood flood-opacity="0" result="BackgroundImageFix"/><feColorMatrix in="SourceAlpha" values="0 0 0 0 0 0 0 0 0 0 0 0 0 0 0 0 0 0 127 0" result="hardAlpha"/><feOffset dy="3"/><feGaussianBlur stdDeviation=".5"/><feColorMatrix values="0 0 0 0 0 0 0 0 0 0 0 0 0 0 0 0 0 0 0.06 0"/><feBlend in2="BackgroundImageFix" result="effect1_dropShadow_7_357"/><feColorMatrix in="SourceAlpha" values="0 0 0 0 0 0 0 0 0 0 0 0 0 0 0 0 0 0 127 0" result="hardAlpha"/><feOffset dy="3"/><feGaussianBlur stdDeviation="4"/><feColorMatrix values="0 0 0 0 0 0 0 0 0 0 0 0 0 0 0 0 0 0 0.15 0"/><feBlend in2="effect1_dropShadow_7_357" result="effect2_dropShadow_7_357"/><feBlend in="SourceGraphic" in2="effect2_dropShadow_7_357" result="shape"/></filter></defs></svg>